Coordinates
version=1
nRows=10
nColumns=40
inDegrees=yes

Units are S.I. units (second, meters, Newtons, ...)
If the header above contains a line with 'inDegrees', this indicates whether rotational values are in degrees (yes) or radians (no).

endheader
time	pelvis_tilt	pelvis_list	pelvis_rotation	pelvis_tx	pelvis_ty	pelvis_tz	hip_flexion_r	hip_adduction_r	hip_rotation_r	knee_angle_r	knee_angle_r_beta	ankle_angle_r	subtalar_angle_r	mtp_angle_r	hip_flexion_l	hip_adduction_l	hip_rotation_l	knee_angle_l	knee_angle_l_beta	ankle_angle_l	subtalar_angle_l	mtp_angle_l	lumbar_extension	lumbar_bending	lumbar_rotation	arm_flex_r	arm_add_r	arm_rot_r	elbow_flex_r	pro_sup_r	wrist_flex_r	wrist_dev_r	arm_flex_l	arm_add_l	arm_rot_l	elbow_flex_l	pro_sup_l	wrist_flex_l	wrist_dev_l
      0.00000000	    -17.53785294	     -4.02829334	      4.97742363	     -0.25204286	      1.06208787	      0.01327714	     85.58920337	     -9.29093955	      0.57712042	     79.93111346	      1.39506110	     -8.09027378	    -12.79329449	      0.00000000	     66.79632815	     -5.67677335	      8.45092870	     83.49229492	      1.45721545	    -17.20100974	    -12.25763992	      0.00000000	    -47.44504350	      6.35280693	      1.59539125	     87.98643226	     -5.34415743	     -5.36501842	     35.65096934	      0.90464475	      0.00000000	      0.00000000	     89.67311685	     -3.48302991	      0.61133520	     29.56100536	     89.36358545	      0.00000000	      0.00000000
      0.00833333	    -16.99458810	     -3.68812460	      5.13549226	     -0.25157436	      1.06183559	      0.01304643	     82.83024912	     -9.51879413	      0.05994741	     76.46675111	      1.33459658	     -9.46222723	    -13.05663044	      0.00000000	     68.09481151	     -5.20019138	      8.79690834	     87.11309164	      1.52041027	    -16.35099960	    -11.66580373	      0.00000000	    -47.91806395	      6.11424595	      1.29778835	     87.98043133	     -5.22512801	     -6.08768748	     35.60762248	      0.89020163	      0.00000000	      0.00000000	     89.67382738	     -3.54444720	      1.07975830	     29.66188952	     89.36365192	      0.00000000	      0.00000000
      0.01666667	    -16.84788396	     -2.88419879	      5.37484229	     -0.25158783	      1.06136270	      0.01239770	     80.43151232	     -9.92883195	      0.20612741	     73.02365317	      1.27450318	    -10.52358800	    -12.98037204	      0.00000000	     69.75102005	     -4.33185671	      8.70719289	     90.43189639	      1.57833434	    -15.90190289	    -11.26100264	      0.00000000	    -48.00292960	      5.63001124	      0.50047555	     87.87148594	     -5.15636133	     -6.21446053	     35.65770404	      0.89379205	      0.00000000	      0.00000000	     89.67895758	     -3.65167971	      1.27702244	     29.75809621	     89.36296007	      0.00000000	      0.00000000
      0.02500000	    -16.37220162	     -2.96886135	      5.54975189	     -0.25115076	      1.06127220	      0.01256945	     77.42490611	    -10.07469037	     -1.01718356	     69.30795922	      1.20965209	    -12.60348871	    -13.59393025	      0.00000000	     71.39080709	     -4.11151668	      9.40199589	     93.90074813	      1.63887722	    -14.93026136	    -10.35183331	      0.00000000	    -48.42994361	      5.71259075	      0.48391966	     87.85555093	     -5.14570976	     -6.50641042	     35.69858768	      0.88125174	      0.00000000	      0.00000000	     89.67767249	     -3.72217939	      1.82625062	     29.89889462	     89.36979394	      0.00000000	      0.00000000
      0.03333333	    -15.96056866	     -2.76019671	      5.69530183	     -0.25059262	      1.06128832	      0.01293435	     74.41328776	    -10.16176297	     -1.84892181	     65.70054675	      1.14669086	    -14.24150932	    -14.35580512	      0.00000000	     73.06721445	     -3.76281170	      9.82521386	     97.14779916	      1.69554896	    -14.06385081	     -9.59542913	      0.00000000	    -48.80779749	      5.50397759	      0.31467499	     87.70699005	     -5.22765841	     -6.71486491	     35.82930778	      0.89368468	      0.00000000	      0.00000000	     89.69195574	     -3.66301134	      2.08184233	     30.01983832	     89.36916883	      0.00000000	      0.00000000
      0.04166667	    -15.81995588	     -1.88741555	      5.86736881	     -0.25004929	      1.06086387	      0.01247327	     71.80301729	    -10.70382843	     -1.94950319	     62.38988787	      1.08890896	    -15.11979294	    -14.25632011	      0.00000000	     74.91148678	     -3.00136526	      9.37704647	    100.19898773	      1.74880224	    -13.57316098	     -9.36072795	      0.00000000	    -48.88843778	      4.87608200	     -0.45757555	     87.50199789	     -5.27424403	     -6.84914129	     35.94220576	      0.89852531	      0.00000000	      0.00000000	     89.69728366	     -3.60999923	      2.24671596	     29.90966026	     89.36001655	      0.00000000	      0.00000000
      0.05000000	    -15.23462054	     -2.25546398	      6.20397399	     -0.24923422	      1.06152468	      0.01283073	     68.30996892	    -10.73094636	     -3.53421916	     58.80023983	      1.02625779	    -16.77258915	    -14.39566972	      0.00000000	     76.59486554	     -3.00640318	     10.32025040	    103.12783221	      1.79992022	    -12.18624683	     -7.39583744	      0.00000000	    -49.46442281	      5.26084828	     -0.30505214	     87.51402942	     -5.24528237	     -7.55265686	     35.83129206	      0.88711459	      0.00000000	      0.00000000	     89.69420893	     -3.54308746	      2.54540801	     30.12916392	     89.36500530	      0.00000000	      0.00000000
      0.05833333	    -15.09574707	     -1.34885766	      6.29405684	     -0.24830511	      1.06107626	      0.01273128	     65.75791928	    -11.23360112	     -3.65961427	     55.83963037	      0.97458540	    -17.57961960	    -14.23577815	      0.00000000	     78.56463553	     -2.36515211	      9.79300582	    105.94500501	      1.84908916	    -11.51689048	     -7.31919941	      0.00000000	    -49.53279934	      4.52651337	     -1.08370444	     87.24090296	     -5.27106864	     -7.64812899	     35.91805567	      0.88860100	      0.00000000	      0.00000000	     89.70382077	     -3.49112158	      2.65972029	     29.96695019	     89.36635985	      0.00000000	      0.00000000
      0.06666667	    -14.90974553	     -0.65625413	      6.42778110	     -0.24754574	      1.06153415	      0.01241024	     62.96416780	    -11.73597595	     -4.08947372	     52.55589035	      0.91727333	    -18.99567423	    -13.74507979	      0.00000000	     80.38773447	     -1.85636178	      9.39253315	    108.37063034	      1.89142431	    -10.40017084	     -7.12450604	      0.00000000	    -49.75425649	      4.01812384	     -1.62719290	     87.12332636	     -5.40258273	     -7.83956625	     35.91150969	      0.88679144	      0.00000000	      0.00000000	     89.71497541	     -3.33310437	      2.82192079	     29.98227716	     89.36842877	      0.00000000	      0.00000000
      0.07500000	    -13.79889880	     -1.11191505	      6.59348524	     -0.24587598	      1.06348563	      0.01299610	     58.83287840	    -11.39193056	     -5.64147185	     49.29700335	      0.86039502	    -20.44420726	    -12.80528997	      0.00000000	     81.42927953	     -1.84218924	     10.45987991	    110.73491783	      1.93268891	     -8.91945745	     -5.64171755	      0.00000000	    -50.93765792	      4.38761469	     -1.25789459	     87.29606368	     -5.42330733	     -8.38803120	     35.64118960	      0.88700344	      0.00000000	      0.00000000	     89.70806325	     -3.26892332	      3.20292540	     30.26361377	     89.36984143	      0.00000000	      0.00000000
